<?xml version="1.0" encoding="UTF-8"?>
<svg width="24" height="24" viewBox="0 0 24 24" fill="none" xmlns="http://www.w3.org/2000/svg">
  <path d="M18.6156 14.0629C17.0812 14.0629 16.3305 12.9357 15.4621 11.6293C14.949 10.8941 14.4172 10.1353 13.7739 9.56235C13.1306 10.1353 12.5988 10.8941 12.0857 11.6293C11.2173 12.9357 10.4666 14.0629 8.93226 14.0629C6.25381 14.0629 4.07812 11.8872 4.07812 9.2088C4.07812 6.53036 6.25381 4.35468 8.93226 4.35468C10.4666 4.35468 11.2173 5.48187 12.0857 6.78828C12.5988 7.52349 13.1306 8.28229 13.7739 8.85522C14.4172 8.28229 14.949 7.52349 15.4621 6.78828C16.3305 5.48187 17.0812 4.35468 18.6156 4.35468C21.294 4.35468 23.4697 6.53036 23.4697 9.2088C23.4697 11.8872 21.294 14.0629 18.6156 14.0629Z" fill="url(#paint0_linear_1_47)"/>
  <path d="M18.6156 14.0629C17.0812 14.0629 16.3305 12.9357 15.4621 11.6293C14.949 10.8941 14.4172 10.1353 13.7739 9.56235C13.1306 10.1353 12.5988 10.8941 12.0857 11.6293C11.2173 12.9357 10.4666 14.0629 8.93226 14.0629C6.25381 14.0629 4.07812 11.8872 4.07812 9.2088C4.07812 6.53036 6.25381 4.35468 8.93226 4.35468C10.4666 4.35468 11.2173 5.48187 12.0857 6.78828C12.5988 7.52349 13.1306 8.28229 13.7739 8.85522C14.4172 8.28229 14.949 7.52349 15.4621 6.78828C16.3305 5.48187 17.0812 4.35468 18.6156 4.35468C21.294 4.35468 23.4697 6.53036 23.4697 9.2088C23.4697 11.8872 21.294 14.0629 18.6156 14.0629Z" fill="url(#paint1_linear_1_47)"/>
  <path d="M13.7739 19.6453C10.0279 19.6453 6.99609 16.6135 6.99609 12.8674C6.99609 12.2858 7.46641 11.8154 8.04803 11.8154C8.62964 11.8154 9.09997 12.2858 9.09997 12.8674C9.09997 15.4546 11.1868 17.5414 13.7739 17.5414C16.3611 17.5414 18.4479 15.4546 18.4479 12.8674C18.4479 12.2858 18.9182 11.8154 19.4998 11.8154C20.0815 11.8154 20.5518 12.2858 20.5518 12.8674C20.5518 16.6135 17.52 19.6453 13.7739 19.6453Z" fill="url(#paint2_linear_1_47)"/>
  <path d="M4.5303 19.6453C3.94869 19.6453 3.47837 19.1749 3.47837 18.5933V12.8674C3.47837 12.2858 3.94869 11.8154 4.5303 11.8154C5.11192 11.8154 5.58224 12.2858 5.58224 12.8674V18.5933C5.58224 19.1749 5.11192 19.6453 4.5303 19.6453Z" fill="url(#paint3_linear_1_47)"/>
  <path d="M23.0176 19.6453C22.436 19.6453 21.9657 19.1749 21.9657 18.5933V12.8674C21.9657 12.2858 22.436 11.8154 23.0176 11.8154C23.5992 11.8154 24.0695 12.2858 24.0695 12.8674V18.5933C24.0695 19.1749 23.5992 19.6453 23.0176 19.6453Z" fill="url(#paint4_linear_1_47)"/>
  <path d="M0.500008 13.8372C0.223633 13.8372 -0.000130653 13.6135 -0.000130653 13.3371C-0.000130653 13.0608 0.223633 12.8371 0.500008 12.8371H3.47818C3.75456 12.8371 3.97832 13.0608 3.97832 13.3371C3.97832 13.6135 3.75456 13.8372 3.47818 13.8372H0.500008Z" fill="url(#paint5_linear_1_47)"/>
  <path d="M23.0698 13.8372C22.7934 13.8372 22.5697 13.6135 22.5697 13.3371C22.5697 13.0608 22.7934 12.8371 23.0698 12.8371H26.048C26.3243 12.8371 26.5481 13.0608 26.5481 13.3371C26.5481 13.6135 26.3243 13.8372 26.048 13.8372H23.0698Z" fill="url(#paint6_linear_1_47)"/>
  <defs>
    <linearGradient id="paint0_linear_1_47" x1="4.87003" y1="8.98303" x2="22.678" y2="8.98303" gradientUnits="userSpaceOnUse">
      <stop stop-color="#5865F2"/>
      <stop offset="1" stop-color="#5539CC"/>
    </linearGradient>
    <linearGradient id="paint1_linear_1_47" x1="4.87003" y1="8.98303" x2="22.678" y2="8.98303" gradientUnits="userSpaceOnUse">
      <stop stop-color="#5865F2"/>
      <stop offset="1" stop-color="#5539CC"/>
    </linearGradient>
    <linearGradient id="paint2_linear_1_47" x1="7.7879" y1="15.4099" x2="19.76" y2="15.4099" gradientUnits="userSpaceOnUse">
      <stop stop-color="#5865F2"/>
      <stop offset="1" stop-color="#5539CC"/>
    </linearGradient>
    <linearGradient id="paint3_linear_1_47" x1="3.57022" y1="15.5918" x2="5.49037" y2="15.5918" gradientUnits="userSpaceOnUse">
      <stop stop-color="#5865F2"/>
      <stop offset="1" stop-color="#5539CC"/>
    </linearGradient>
    <linearGradient id="paint4_linear_1_47" x1="22.0576" y1="15.5918" x2="23.9777" y2="15.5918" gradientUnits="userSpaceOnUse">
      <stop stop-color="#5865F2"/>
      <stop offset="1" stop-color="#5539CC"/>
    </linearGradient>
    <linearGradient id="paint5_linear_1_47" x1="0.09197" y1="13.3066" x2="3.88614" y2="13.3066" gradientUnits="userSpaceOnUse">
      <stop stop-color="#5865F2"/>
      <stop offset="1" stop-color="#5539CC"/>
    </linearGradient>
    <linearGradient id="paint6_linear_1_47" x1="22.662" y1="13.3066" x2="26.4562" y2="13.3066" gradientUnits="userSpaceOnUse">
      <stop stop-color="#5865F2"/>
      <stop offset="1" stop-color="#5539CC"/>
    </linearGradient>
  </defs>
</svg>
