<?xml version="1.0" encoding="UTF-8"?>
<svg version="1.1" xmlns="http://www.w3.org/2000/svg" width="500" height="500">
<path d="M0 0 C0.78503906 0.71285156 1.57007813 1.42570312 2.37890625 2.16015625 C22.91007401 21.69587345 33.95487473 48.81476017 34.9609375 76.8984375 C35.53442686 108.95283218 23.00993178 137.21660526 2 161 C1.40058594 161.68320313 0.80117188 162.36640625 0.18359375 163.0703125 C-19.70906503 184.29487716 -47.51505251 193.73591846 -76 195 C-82.33442165 195.17461649 -88.67174694 195.15411836 -95.00805664 195.15771484 C-96.88063168 195.16239449 -98.7532056 195.16753991 -100.6257782 195.17311096 C-104.63068088 195.18430849 -108.63557649 195.19278211 -112.64048958 195.19923019 C-118.98394083 195.20999765 -125.32734043 195.2302624 -131.67076111 195.25234985 C-149.69951012 195.31399056 -167.72825422 195.36829404 -185.75708008 195.40136719 C-195.73540694 195.41975111 -205.7136452 195.44872519 -215.69190687 195.4893719 C-220.95989555 195.51036051 -226.22777306 195.52588777 -231.49580574 195.52817917 C-236.449515 195.53033698 -241.40299196 195.54632121 -246.35663033 195.57256889 C-248.16529558 195.57971744 -249.97398911 195.58188466 -251.78266525 195.57846642 C-271.50941347 195.54716062 -288.75197022 198.8572141 -303.46484375 213.13671875 C-316.14247793 227.45521775 -322.652947 244.54997317 -322.2421875 263.71875 C-320.9679919 280.98204516 -313.21909844 294.32126112 -301 306 C-300.29230469 306.67804688 -299.58460938 307.35609375 -298.85546875 308.0546875 C-285.57813549 319.47877921 -268.29215423 323.03957953 -251.28369141 322.1953125 C-233.80694391 320.70061526 -220.81014955 311.61134655 -209.25 299.0625 C-200.24621472 288.30032842 -195.00971676 275.2085706 -194.79467773 261.1081543 C-194.77473251 259.94732834 -194.75478729 258.78650238 -194.73423767 257.59049988 C-194.71752518 256.34762711 -194.70081268 255.10475433 -194.68359375 253.82421875 C-194.6524221 251.90377495 -194.6524221 251.90377495 -194.62062073 249.9445343 C-194.56562428 246.55310271 -194.51611688 243.16161265 -194.46777344 239.77008057 C-194.41739384 236.3043503 -194.36184416 232.83870311 -194.30664062 229.37304688 C-194.19884775 222.58209558 -194.09965079 215.7910952 -194 209 C-177.5 209 -161 209 -144 209 C-143.93043424 216.44868946 -143.87091341 223.89621293 -143.83520508 231.3449707 C-143.82029029 233.86909849 -143.7999513 236.39320118 -143.77368164 238.91723633 C-143.37724494 278.04009773 -150.23363326 310.13212838 -178.07421875 339.0390625 C-200.17779218 361.53798439 -226.97352624 372.6715991 -258.59033203 373.02734375 C-281.31390321 372.76948762 -307.36927655 365.8363114 -325 351 C-325.54205078 350.55221191 -326.08410156 350.10442383 -326.64257812 349.64306641 C-330.83328669 346.17454306 -334.94179472 342.62240712 -339 339 C-339.69222656 338.38253906 -340.38445312 337.76507813 -341.09765625 337.12890625 C-359.98590609 319.22302401 -371.55236661 292.88447546 -373 267 C-373.62488015 231.95967774 -361.34024356 201.08398949 -337.1875 175.6875 C-310.68932706 150.58174697 -279.40515491 144.86222257 -244.01367188 144.84228516 C-242.13139225 144.83760666 -240.24911374 144.83246142 -238.36683655 144.82688904 C-234.33790699 144.81568266 -230.3089845 144.80721314 -226.28004456 144.80076981 C-219.89886794 144.79001094 -213.51774285 144.76974781 -207.13659668 144.74765015 C-188.99945427 144.6859826 -170.86231652 144.63171352 -152.72509766 144.59863281 C-142.68927961 144.58024913 -132.65354965 144.55127408 -122.61779642 144.5106281 C-117.31849383 144.4896366 -112.01930179 144.47411184 -106.71995544 144.47182083 C-101.73589134 144.46966306 -96.75205814 144.45367929 -91.7680645 144.42743111 C-89.94811212 144.42028198 -88.12813163 144.41811563 -86.30816841 144.42153358 C-67.12518407 144.45178506 -49.69004095 141.48272053 -35.3125 127.578125 C-22.29640636 113.06693953 -15.12100702 95.88581009 -15.72265625 76.17578125 C-17.22912873 58.9256104 -24.74767671 45.71049445 -37 34 C-37.70769531 33.32195312 -38.41539062 32.64390625 -39.14453125 31.9453125 C-53.13665016 19.90620445 -71.16873257 16.79734053 -89 18 C-103.96343241 19.92511996 -118.60966502 28.26859343 -128.1875 39.8125 C-137.00996006 51.45884886 -142.97866109 64.02934855 -143.20532227 78.8918457 C-143.22526749 80.05267166 -143.24521271 81.21349762 -143.26576233 82.40950012 C-143.28247482 83.65237289 -143.29918732 84.89524567 -143.31640625 86.17578125 C-143.3475779 88.09622505 -143.3475779 88.09622505 -143.37937927 90.0554657 C-143.43437572 93.44689729 -143.48388312 96.83838735 -143.53222656 100.22991943 C-143.58260616 103.6956497 -143.63815584 107.16129689 -143.69335938 110.62695312 C-143.80115225 117.41790442 -143.90034921 124.2089048 -144 131 C-160.5 131 -177 131 -194 131 C-194.06950405 123.39059399 -194.12904508 115.78232411 -194.16479492 108.17285156 C-194.17972461 105.59338616 -194.20007568 103.01394542 -194.22631836 100.43457031 C-194.61263384 61.43943158 -187.65758069 29.75491886 -159.92578125 0.9609375 C-142.14602257 -17.13683313 -121.37860649 -28.57915097 -96 -32 C-94.96359375 -32.14050781 -93.9271875 -32.28101563 -92.859375 -32.42578125 C-57.83515447 -36.07780424 -25.57651391 -23.53348829 0 0 Z " fill="#FDFDFD" transform="translate(419,80)"/>
</svg>
